<svg width="165" height="32" viewBox="0 0 165 32" fill="none" xmlns="http://www.w3.org/2000/svg">
<path opacity="0.2" d="M26.6363 21.56C25.6667 23.4146 24.229 24.9834 22.4658 26.1107C20.7026 27.238 18.6753 27.8846 16.585 27.9863L16.9813 25.9313C17.0107 25.777 17.0035 25.618 16.96 25.467C16.9166 25.3161 16.8382 25.1775 16.7313 25.0625L14.2638 22.5213C14.1308 22.3777 14.0428 22.1982 14.0108 22.0051C13.9788 21.8121 14.0042 21.6138 14.0838 21.435L15.7963 17.5925C15.8843 17.3951 16.034 17.2314 16.2228 17.1262C16.4117 17.021 16.6295 16.9798 16.8438 17.0088L19.6963 17.3938C19.8344 17.4127 19.9672 17.4599 20.0863 17.5325L26.6363 21.56ZM14.5888 11.875L16.125 11.03C16.1928 10.9933 16.2558 10.9484 16.3125 10.8963L19.6763 7.85501C19.8437 7.70274 19.9545 7.49817 19.9906 7.27475C20.0267 7.05133 19.986 6.82227 19.875 6.62501L18.5625 4.27376C17.7206 4.09138 16.8615 3.99961 16 4.00001C13.2609 3.99584 10.6034 4.93269 8.47251 6.65376L7.00001 10.135C6.90055 10.3707 6.89519 10.6355 6.98502 10.875L8.42251 14.7088C8.48158 14.8654 8.57902 15.0047 8.70591 15.1139C8.8328 15.2231 8.98507 15.2987 9.14877 15.3338L9.48501 15.4063L11.15 12.5C11.2379 12.3478 11.3644 12.2214 11.5167 12.1336C11.669 12.0458 11.8417 11.9998 12.0175 12H14.1063C14.2751 12.0003 14.4413 11.9573 14.5888 11.875Z" fill="#EF5F4C"/>
<path d="M16 3C13.4288 3 10.9154 3.76244 8.77759 5.1909C6.63975 6.61935 4.97351 8.64968 3.98957 11.0251C3.00563 13.4006 2.74819 16.0144 3.2498 18.5362C3.75141 21.0579 4.98953 23.3743 6.80762 25.1924C8.6257 27.0105 10.9421 28.2486 13.4638 28.7502C15.9856 29.2518 18.5995 28.9944 20.9749 28.0104C23.3503 27.0265 25.3807 25.3603 26.8091 23.2224C28.2376 21.0846 29 18.5712 29 16C28.9964 12.5533 27.6256 9.24882 25.1884 6.81163C22.7512 4.37445 19.4467 3.00364 16 3ZM27 16C27.0011 17.4112 26.7295 18.8094 26.2 20.1175L20.6125 16.6812C20.3749 16.5347 20.1092 16.4397 19.8325 16.4025L16.98 16.0175C16.5869 15.9662 16.1875 16.0321 15.8317 16.2069C15.476 16.3817 15.1797 16.6576 14.98 17H13.89L13.415 16.0175C13.2837 15.7439 13.0915 15.504 12.8532 15.3162C12.6148 15.1283 12.3367 14.9975 12.04 14.9338L11.04 14.7175L12.0175 13H14.1063C14.4442 12.9993 14.7766 12.9133 15.0725 12.75L16.6038 11.905C16.7383 11.83 16.8641 11.7403 16.9788 11.6375L20.3425 8.595C20.6798 8.29277 20.9039 7.8846 20.978 7.43784C21.0521 6.99108 20.9717 6.53241 20.75 6.1375L20.705 6.05625C22.5873 6.94875 24.1778 8.35674 25.292 10.1168C26.4063 11.8769 26.9985 13.9169 27 16ZM17.9138 5.1675L19 7.1125L15.6363 10.155L14.1063 11H12.0175C11.6659 10.9995 11.3204 11.0916 11.0158 11.2672C10.7112 11.4428 10.4583 11.6955 10.2825 12L9.19126 13.9038L7.92251 10.5238L9.29001 7.29C10.5004 6.35474 11.8929 5.68262 13.3781 5.31669C14.8633 4.95076 16.4086 4.8991 17.915 5.165L17.9138 5.1675ZM5.00001 16C4.99834 14.365 5.36311 12.7505 6.06751 11.275L7.48501 15.0588C7.60313 15.372 7.79802 15.6506 8.0518 15.869C8.30558 16.0874 8.61012 16.2386 8.93751 16.3088L11.6163 16.885L12.0925 17.875C12.2578 18.2117 12.5139 18.4955 12.832 18.6943C13.1501 18.8931 13.5174 18.999 13.8925 19H14.0775L13.1738 21.0287C13.0145 21.386 12.9635 21.782 13.0271 22.168C13.0906 22.5539 13.2659 22.9127 13.5313 23.2L13.5488 23.2175L16 25.7425L15.7575 26.9925C12.8848 26.9256 10.152 25.7387 8.14216 23.685C6.13236 21.6313 5.00477 18.8735 5.00001 16ZM17.8225 26.8475L17.9638 26.1213C18.0218 25.8127 18.0068 25.4949 17.92 25.1931C17.8332 24.8914 17.6769 24.6142 17.4638 24.3838C17.4576 24.3782 17.4518 24.3724 17.4463 24.3662L15 21.8425L16.7125 18L19.565 18.385L25.28 21.9C24.452 23.2003 23.3605 24.3125 22.076 25.1647C20.7914 26.0169 19.3424 26.5902 17.8225 26.8475Z" fill="#EF5F4C"/>
<path d="M40.54 10.56V7.96H51.62V10.56H47.78V22H44.36V10.56H40.54ZM57.088 10.84V12.92C57.888 11.4533 58.9546 10.72 60.288 10.72V14.2H59.448C58.6613 14.2 58.068 14.3867 57.668 14.76C57.2813 15.1333 57.088 15.7867 57.088 16.72V22H53.668V10.84H57.088ZM68.9445 18.46C69.4379 17.98 69.6845 17.3 69.6845 16.42C69.6845 15.54 69.4379 14.8667 68.9445 14.4C68.4512 13.92 67.8845 13.68 67.2445 13.68C66.6045 13.68 66.0379 13.92 65.5445 14.4C65.0512 14.88 64.8045 15.56 64.8045 16.44C64.8045 17.32 65.0512 18 65.5445 18.48C66.0379 18.9467 66.6045 19.18 67.2445 19.18C67.8845 19.18 68.4512 18.94 68.9445 18.46ZM62.8045 20.54C61.8179 19.4733 61.3245 18.1067 61.3245 16.44C61.3245 14.7733 61.8179 13.4067 62.8045 12.34C63.7912 11.26 64.9912 10.72 66.4045 10.72C67.8312 10.72 68.9245 11.2467 69.6845 12.3V10.84H73.1045V22H69.6845V20.38C68.8579 21.5533 67.7512 22.14 66.3645 22.14C64.9779 22.14 63.7912 21.6067 62.8045 20.54ZM74.6894 10.84H78.3294L80.8694 19.14L83.4094 10.84H87.0494L83.0894 22H78.6494L74.6894 10.84ZM93.3689 22.14C91.7422 22.14 90.4089 21.62 89.3689 20.58C88.3289 19.5267 87.8089 18.1333 87.8089 16.4C87.8089 14.6667 88.3222 13.2867 89.3489 12.26C90.3889 11.2333 91.7289 10.72 93.3689 10.72C95.0089 10.72 96.3689 11.2267 97.4489 12.24C98.5289 13.2533 99.0689 14.66 99.0689 16.46C99.0689 16.8467 99.0422 17.2067 98.9889 17.54H91.3089C91.3756 18.0333 91.5956 18.44 91.9689 18.76C92.3422 19.0667 92.7422 19.22 93.1689 19.22C93.6089 19.22 93.9356 19.18 94.1489 19.1C94.3622 19.0067 94.5156 18.92 94.6089 18.84C94.7156 18.7467 94.8489 18.6 95.0089 18.4H98.7089C98.3889 19.52 97.7489 20.4267 96.7889 21.12C95.8289 21.8 94.6889 22.14 93.3689 22.14ZM95.5089 15.4C95.4556 14.88 95.2289 14.46 94.8289 14.14C94.4289 13.8067 93.9556 13.64 93.4089 13.64C92.8622 13.64 92.4022 13.8067 92.0289 14.14C91.6556 14.46 91.4222 14.88 91.3289 15.4H95.5089ZM101.266 22V7.2H104.686V22H101.266ZM108.351 20.54C107.365 19.4733 106.871 18.1067 106.871 16.44C106.871 14.7733 107.365 13.4067 108.351 12.34C109.338 11.26 110.538 10.72 111.951 10.72C113.378 10.72 114.471 11.2467 115.231 12.3V10.84H118.651V21.94C118.651 23.5 118.225 24.8 117.371 25.84C116.945 26.3733 116.358 26.7867 115.611 27.08C114.878 27.3733 114.025 27.52 113.051 27.52C111.345 27.52 109.991 27.1733 108.991 26.48C107.991 25.7867 107.425 24.7267 107.291 23.3H110.651C110.971 24.14 111.771 24.56 113.051 24.56C113.678 24.56 114.198 24.3467 114.611 23.92C115.025 23.5067 115.231 22.8467 115.231 21.94V20.38C114.405 21.5533 113.298 22.14 111.911 22.14C110.525 22.14 109.338 21.6067 108.351 20.54ZM114.491 18.46C114.985 17.98 115.231 17.3 115.231 16.42C115.231 15.54 114.985 14.8667 114.491 14.4C113.998 13.92 113.431 13.68 112.791 13.68C112.151 13.68 111.585 13.92 111.091 14.4C110.598 14.88 110.351 15.56 110.351 16.44C110.351 17.32 110.598 18 111.091 18.48C111.585 18.9467 112.151 19.18 112.791 19.18C113.431 19.18 113.998 18.94 114.491 18.46ZM125.076 10.84V12.92C125.876 11.4533 126.943 10.72 128.276 10.72V14.2H127.436C126.65 14.2 126.056 14.3867 125.656 14.76C125.27 15.1333 125.076 15.7867 125.076 16.72V22H121.656V10.84H125.076ZM136.933 18.46C137.426 17.98 137.673 17.3 137.673 16.42C137.673 15.54 137.426 14.8667 136.933 14.4C136.439 13.92 135.873 13.68 135.233 13.68C134.593 13.68 134.026 13.92 133.533 14.4C133.039 14.88 132.793 15.56 132.793 16.44C132.793 17.32 133.039 18 133.533 18.48C134.026 18.9467 134.593 19.18 135.233 19.18C135.873 19.18 136.439 18.94 136.933 18.46ZM130.793 20.54C129.806 19.4733 129.313 18.1067 129.313 16.44C129.313 14.7733 129.806 13.4067 130.793 12.34C131.779 11.26 132.979 10.72 134.393 10.72C135.819 10.72 136.913 11.2467 137.673 12.3V10.84H141.093V22H137.673V20.38C136.846 21.5533 135.739 22.14 134.353 22.14C132.966 22.14 131.779 21.6067 130.793 20.54ZM147.518 10.84V12.48C148.224 11.3067 149.351 10.72 150.898 10.72C151.724 10.72 152.458 10.9067 153.098 11.28C153.751 11.6533 154.258 12.1867 154.618 12.88C155.031 12.2267 155.564 11.7067 156.218 11.32C156.884 10.92 157.624 10.72 158.438 10.72C159.798 10.72 160.878 11.14 161.678 11.98C162.478 12.82 162.878 13.9867 162.878 15.48V22H159.478V15.94C159.478 15.22 159.284 14.6667 158.898 14.28C158.524 13.88 158.004 13.68 157.338 13.68C156.671 13.68 156.144 13.88 155.758 14.28C155.384 14.6667 155.198 15.22 155.198 15.94V22H151.798V15.94C151.798 15.22 151.604 14.6667 151.218 14.28C150.844 13.88 150.324 13.68 149.658 13.68C148.991 13.68 148.464 13.88 148.078 14.28C147.704 14.6667 147.518 15.22 147.518 15.94V22H144.098V10.84H147.518Z" fill="#EF5F4C"/>
</svg>
